<svg width="21" height="21" viewBox="0 0 21 21" fill="none" xmlns="http://www.w3.org/2000/svg">
<path d="M15.7426 21C14.7256 20.9079 13.8469 20.6752 12.9893 20.3585C10.9407 19.6027 9.12391 18.4545 7.44254 17.0793C5.09796 15.1613 3.13986 12.9132 1.65757 10.2662C0.888111 8.89221 0.310723 7.4442 0.0386676 5.88247C-0.0436496 5.40835 -0.00511817 4.98555 0.257596 4.568C1.2238 3.03543 2.33596 1.62882 3.73126 0.460144C3.82059 0.385499 3.92042 0.323682 4.01558 0.256035C4.56319 -0.131774 4.99988 -0.0647092 5.57494 0.360422C5.67885 0.437401 5.76993 0.538872 5.84524 0.644426C6.74314 1.91166 7.60659 3.20163 8.28732 4.60241C8.43619 4.90857 8.54886 5.23398 8.65628 5.55764C8.78881 5.95653 8.70883 6.3385 8.42509 6.63767C8.08473 6.99632 7.71226 7.32523 7.33921 7.65064C6.85815 8.07111 6.84589 8.06702 7.1016 8.66361C8.19391 11.2115 10.0335 12.9878 12.618 14.0002C12.8445 14.0888 12.987 14.083 13.151 13.8737C13.4558 13.4835 13.7926 13.1179 14.1283 12.7528C14.5656 12.2763 15.1045 12.1288 15.6959 12.4017C16.442 12.7464 17.1887 13.0998 17.8945 13.5179C18.7276 14.0113 19.521 14.5729 20.3255 15.1141C20.6652 15.3427 20.8702 15.671 20.97 16.071C21.0243 16.2903 21.0079 16.4962 20.8959 16.6828C20.7505 16.926 20.6057 17.1761 20.42 17.3867C19.2197 18.749 17.8285 19.8832 16.2563 20.7936C16.0718 20.8997 15.8582 20.9545 15.7426 21Z" fill="#CE1126"/>
</svg>
